REM MD5 4a5b6a4199d1d1adf9d5a15453befcc2
FILE "Euro Demo 32 (France).bin" BINARY
  TRACK 01 MODE2/2352
    INDEX 01 00:00:00
  TRACK 02 AUDIO
    INDEX 00 39:00:37
    INDEX 01 39:02:37
  TRACK 03 AUDIO
    INDEX 00 39:32:26
    INDEX 01 39:34:26
  TRACK 04 AUDIO
    INDEX 00 43:02:67
    INDEX 01 43:04:67
  TRACK 05 AUDIO
    INDEX 00 46:06:29
    INDEX 01 46:08:29
  TRACK 06 AUDIO
    INDEX 00 49:02:46
    INDEX 01 49:04:46
REM LEADOUT 52:06:03
